Coordinates
version=1
nRows=9
nColumns=36
inDegrees=yes

Units are S.I. units (second, meters, Newtons, ...)
If the header above contains a line with 'inDegrees', this indicates whether rotational values are in degrees (yes) or radians (no).

endheader
time	pelvis_tilt	pelvis_list	pelvis_rotation	pelvis_tx	pelvis_ty	pelvis_tz	hip_flexion_r	hip_adduction_r	hip_rotation_r	knee_angle_r	knee_angle_r_beta	ankle_angle_r	subtalar_angle_r	mtp_angle_r	hip_flexion_l	hip_adduction_l	hip_rotation_l	knee_angle_l	knee_angle_l_beta	ankle_angle_l	subtalar_angle_l	mtp_angle_l	lumbar_extension	lumbar_bending	lumbar_rotation	arm_flex_r	arm_add_r	arm_rot_r	elbow_flex_r	pro_sup_r	arm_flex_l	arm_add_l	arm_rot_l	elbow_flex_l	pro_sup_l
      2.93333330	     -6.85821250	     -2.61237785	      0.74693753	      0.67953287	      1.45024726	     -0.07702267	     14.89305890	     -1.62914117	     -8.23481521	     28.74032299	      0.50161326	     -6.77005361	     -7.54852502	     -7.49999987	      3.41847329	     -7.41740275	     -6.84287615	     18.52843884	      0.32338226	     -5.23584674	     -0.25419310	     -7.49999987	     -6.40302960	      4.04669763	    -13.55050644	     21.37485890	    -12.92500236	     31.46160353	     54.18507320	     80.36585080	     -4.70752730	    -16.84943651	      0.63859232	     65.71029547	     82.01031706
      2.95000000	     -6.74953253	     -1.94869020	      1.34788173	      0.69474812	      1.42469367	     -0.07674494	     16.63271320	     -2.87719008	     -8.05145202	     26.72784983	      0.46648898	     -7.87167034	     -7.58534772	     -7.49999987	      4.99131684	     -6.71675566	     -6.64831284	     17.03760851	      0.29736237	     -5.39012585	     -0.66236593	     -7.49999987	     -6.91973916	      3.13531250	    -13.63144430	     20.15395246	    -12.88930689	     30.77179651	     49.45314347	     80.18321217	     -5.58831206	    -17.38862132	      1.01171396	     61.77163219	     82.06088215
      2.96666670	     -6.52285402	     -1.38799692	      1.27482586	      0.73757988	      1.40204760	     -0.08126179	     17.89507400	     -3.99049647	     -7.65094279	     24.45120295	      0.42675400	     -9.00668741	     -7.77144937	     -7.49999987	      6.63452415	     -6.10590926	     -6.60705585	     16.28593332	      0.28424316	     -6.10439528	     -1.87840425	     -7.49999987	     -7.26288623	      2.54524913	    -13.11921329	     18.56062783	    -13.17340902	     29.67803216	     45.14744576	     80.00418244	     -6.90166405	    -17.09172393	      0.38997924	     57.55580239	     81.99192209
      2.98333330	     -6.36143269	     -0.97409855	      1.21504066	      0.77335815	      1.38696521	     -0.07682894	     17.84623316	     -4.82412156	     -7.42708743	     20.29040378	      0.35413435	    -10.94673079	     -6.61675034	     -7.49999987	      7.64253049	     -5.81614536	     -6.92352315	     14.74077244	      0.25727501	     -7.23706056	     -2.38159461	     -7.49999987	     -7.29586616	      1.85020702	    -12.41658332	     16.22400063	    -13.61627682	     27.41049584	     41.29659488	     80.06727207	     -8.17908004	    -17.21010432	      0.49254348	     53.67073482	     82.76594525
      3.00000000	     -6.47281990	     -0.29640170	      1.35131814	      0.78830834	      1.36458033	     -0.07549111	     18.93202808	     -6.09669111	     -7.28753446	     17.63244257	      0.30774418	    -12.74281249	     -5.14989842	     -7.49999987	      8.78402314	     -5.17399754	     -6.71284171	     13.01498712	      0.22715438	     -7.61261607	     -1.94512065	     -7.49999987	     -7.35728982	      0.91587244	    -12.06357787	     14.38649153	    -14.09540605	     26.23168630	     38.12232136	     80.41465896	     -9.83853348	    -17.67072788	      0.52227228	     50.92891024	     83.32175704
      3.01666670	     -6.44861954	      0.20568122	      1.87659696	      0.80434079	      1.35233988	     -0.07488864	     20.12796657	     -7.26454201	     -7.93722629	     15.39971534	      0.26877574	    -14.89788605	     -4.15823287	     -7.49999987	     10.46069475	     -4.77640606	     -6.75390776	     11.56707278	      0.20188350	     -9.28657205	     -1.78584890	     -7.49999987	     -8.09652721	      0.16734997	    -12.00242733	     12.60920912	    -14.75211316	     25.57551507	     36.17241555	     80.68520036	    -11.48467623	    -18.41558537	      0.66451808	     49.49001145	     83.71405261
      3.03333330	     -6.51204801	      0.60366041	      2.18886542	      0.83164959	      1.31284062	     -0.07370165	     21.45464621	     -8.17692215	     -8.26306929	     13.16012080	      0.22968744	    -15.44119376	     -2.64339271	     -7.49999987	     12.64430193	     -4.40133754	     -5.74599681	     11.07446831	      0.19328593	     -9.63609107	     -2.84711169	     -7.49999987	     -8.05710764	     -0.44960583	    -10.02476298	      9.31515786	    -14.66931338	     17.94124598	     34.04970201	     88.43806828	    -11.32126057	    -19.53266119	      4.00422642	     46.12301571	     85.49763882
      3.05000000	     -6.61389782	      0.84069797	      2.72761951	      0.85989018	      1.27267931	     -0.07293248	     22.59477360	     -8.96687241	     -8.91798317	     11.21455978	      0.19573099	    -15.83929630	     -1.54400918	     -7.49999987	     15.13429966	     -4.19421989	     -5.21666893	     10.57258617	      0.18452644	    -10.39479320	     -4.14164226	     -7.49999987	     -8.72863238	     -0.77086972	     -9.84387923	      7.75354028	    -15.35121431	     17.31822828	     33.02892290	     88.30884692	    -13.06927282	    -20.32194687	      4.17376892	     45.30169409	     85.38558509
      3.06666670	     -6.40919106	      0.86695852	      2.86753122	      0.89862752	      1.25016038	     -0.07131839	     22.91128292	     -9.24435115	    -10.04337523	      9.34630305	      0.16312376	    -16.63880030	     -0.14604242	     -7.49999987	     16.04000670	     -4.17413459	     -4.58142069	      9.03603722	      0.15770860	    -11.68722789	     -4.77026109	     -7.49999987	     -8.90950151	     -0.83809294	     -9.96966816	      6.57616501	    -15.52331841	     16.01773965	     30.92372104	     88.46071850	    -14.97241861	    -21.03797414	      5.18531620	     43.74202191	     85.53821424
